# Blender v2.78 (sub 0) OBJ File: 'crateA_blender.blend'
# www.blender.org
mtllib crate.mtl
o crateA_crate.002
v 2.000000 4.000000 2.000000
v 2.000001 3.416373 1.599999
v 2.000001 0.330436 1.599999
v 1.900001 3.416373 1.599999
v 1.900001 0.330436 1.599999
v -1.217087 0.100000 1.608652
v 2.000000 4.000000 -2.000000
v -1.599999 0.330436 2.000001
v 2.000001 3.416373 -1.599999
v 2.000001 0.330436 -1.599999
v 1.900001 3.416373 -1.599999
v 1.900001 0.330436 -1.599999
v -1.217087 -0.000001 1.608652
v -2.000000 0.000000 2.000000
v -2.000001 3.416373 1.599999
v -2.000001 0.330436 1.599999
v -1.900001 3.416373 1.599999
v -1.900001 0.330436 1.599999
v -2.000000 -0.000000 -2.000000
v -1.217087 -0.000001 -1.455058
v -2.000000 4.000000 2.000000
v -1.599999 3.416373 2.000001
v -2.000001 3.416373 -1.599999
v -2.000001 0.330436 -1.599999
v -1.900001 3.416373 -1.599999
v -1.900001 0.330436 -1.599999
v -1.599999 3.416373 1.900001
v -1.599999 0.330436 1.900001
v 2.000000 0.000000 2.000000
v 1.599999 3.416373 2.000001
v 1.599999 0.330436 2.000001
v 1.599999 3.416373 1.900000
v 1.599999 0.330436 1.900000
v -2.000000 4.000000 -2.000000
v -1.599999 3.416373 -2.000001
v -1.599999 0.330436 -2.000001
v -1.599999 3.416373 -1.900000
v -1.599999 0.330436 -1.900000
v 2.000000 -0.000000 -2.000000
v 1.599999 3.416373 -2.000001
v 1.599999 0.330436 -2.000001
v 1.599999 3.416373 -1.900001
v 1.599999 0.330436 -1.900001
v -1.217087 0.099999 -1.455058
v 1.238360 -0.000000 1.608652
v 1.238360 -0.000001 -1.455058
v 1.238360 0.100000 1.608652
v 1.238360 0.100000 -1.455058
v -1.280838 4.000001 1.531595
v -1.280838 4.000000 -1.500811
v -1.280838 3.900001 1.531595
v -1.280838 3.900000 -1.500811
v 1.295023 4.000001 1.531595
v 1.295023 4.000001 -1.500811
v 1.295023 3.900001 1.531594
v 1.295023 3.900001 -1.500811
vt 0.3720 0.8418
vt 0.3679 0.8540
vt 0.3671 0.0827
vt 0.3716 0.0949
vt 0.6305 0.0949
vt 0.3720 0.8601
vt 0.6301 0.8601
vt 0.6342 0.8723
vt 0.7295 0.1301
vt 0.7255 0.1177
vt 0.9405 0.1177
vt 0.6301 0.8418
vt 0.6350 0.0827
vt 0.3716 0.0824
vt 0.3671 0.0702
vt 0.6350 0.0702
vt 0.6342 0.8540
vt 0.6673 1.0000
vt 0.9365 0.1302
vt 0.7291 0.8624
vt 0.6269 0.8387
vt 0.6269 0.0984
vt 0.6309 0.0864
vt 0.3709 0.8399
vt 0.3709 0.0971
vt 0.6269 0.8607
vt 0.6310 0.8726
vt 0.3668 0.8752
vt 0.7246 0.8748
vt 0.3668 0.8532
vt 0.3668 0.0838
vt 0.6269 0.0824
vt 0.3709 0.0811
vt 0.3668 0.0678
vt 0.9299 0.8502
vt 0.9341 0.8630
vt 0.7286 0.8631
vt 0.0385 0.8416
vt 0.0340 0.8538
vt 0.0349 0.0828
vt 0.0389 0.0950
vt 0.2969 0.0950
vt 0.0385 0.8572
vt 0.2973 0.8572
vt 0.3018 0.8694
vt 0.7321 0.1114
vt 0.7326 0.8507
vt 0.9294 0.1109
vt 0.7279 0.0985
vt 0.2973 0.8416
vt 0.3009 0.0828
vt 0.0389 0.0828
vt 0.0349 0.0706
vt 0.3009 0.0706
vt 0.2933 0.8399
vt 0.2933 0.0971
vt 0.2973 0.0838
vt 0.0372 0.8387
vt 0.0373 0.0984
vt 0.2933 0.8587
vt 0.2973 0.8720
vt 0.0332 0.8694
vt 0.9379 0.1121
vt 0.9420 0.0997
vt 0.9385 0.8514
vt 0.0332 0.8554
vt 0.0332 0.0864
vt 0.2933 0.0821
vt 0.0373 0.0834
vt 0.0332 0.0714
vt 0.9334 0.0985
vt 0.9987 0.0000
vt 0.6310 0.8543
vt 0.6641 0.9950
vt 0.3337 1.0000
vt 0.3018 0.8538
vt 0.3325 1.0000
vt 0.2973 0.8580
vt 0.3304 1.0000
vt 0.9413 0.8749
vt 0.9369 0.8624
vt 0.6641 0.0000
vt 0.6651 1.0000
vt 0.3347 1.0000
vt 0.3331 0.0000
vt 1.0009 1.0000
vt 0.6639 1.0000
vt 0.6656 0.0000
vt 0.0000 1.0000
vt 0.0017 0.0000
vt 0.3304 0.0000
vt 0.0002 0.0048
vt 0.6690 0.0000
vt 0.6640 0.0048
vt 0.3337 0.0000
vt 0.3341 0.0000
vt 0.0000 0.9950
vt 0.9992 0.0000
vt 0.3679 0.8723
vt 0.6305 0.0824
vt 0.3709 0.8619
vt 0.6309 0.0704
vt 0.0340 0.8694
vt 0.2969 0.0828
vt 0.0372 0.8574
vt 0.9427 0.8643
vt 0.2973 0.0688
vt 0.9997 1.0000
vn 0.0000 0.0000 -1.0000
vn 1.0000 0.0000 0.0000
vn 0.0000 -1.0000 0.0000
vn 0.0000 0.0000 1.0000
vn 0.0000 1.0000 0.0000
vn -1.0000 0.0000 0.0000
usemtl CrateMat
s off
f 4/1/1 2/2/1 3/3/1
f 4/1/2 5/4/2 12/5/2
f 4/6/3 11/7/3 9/8/3
f 51/9/1 49/10/1 53/11/1
f 11/12/4 12/5/4 10/13/4
f 5/14/5 3/15/5 10/16/5
f 2/2/2 9/17/2 7/18/2
f 51/9/5 55/19/5 52/20/5
f 17/21/1 18/22/1 16/23/1
f 17/21/6 25/24/6 26/25/6
f 17/26/3 15/27/3 23/28/3
f 51/9/2 52/20/2 50/29/2
f 25/24/4 23/30/4 24/31/4
f 18/32/5 26/33/5 24/34/5
f 44/35/4 20/36/4 46/37/4
f 27/38/2 22/39/2 8/40/2
f 27/38/4 28/41/4 33/42/4
f 27/43/3 32/44/3 30/45/3
f 47/46/6 48/47/6 46/37/6
f 6/48/1 47/46/1 45/49/1
f 32/50/6 33/42/6 31/51/6
f 28/52/5 8/53/5 31/54/5
f 6/48/3 44/35/3 47/46/3
f 37/55/2 38/56/2 36/57/2
f 37/55/1 42/58/1 43/59/1
f 37/60/3 35/61/3 40/62/3
f 6/63/2 13/64/2 44/65/2
f 42/58/6 40/66/6 41/67/6
f 38/68/5 43/69/5 41/70/5
f 13/71/3 14/72/3 20/36/3
f 15/73/6 21/74/6 34/75/6
f 22/39/4 30/76/4 1/77/4
f 35/78/1 34/79/1 40/66/1
f 55/19/6 53/11/6 54/80/6
f 52/20/4 56/81/4 50/29/4
f 45/49/3 46/37/3 29/82/3
f 39/83/3 46/37/3 20/36/3
f 13/71/3 45/49/3 29/82/3
f 2/2/2 1/84/2 29/85/2
f 7/86/5 34/87/5 50/29/5
f 49/10/5 50/29/5 21/88/5
f 22/39/4 21/89/4 14/90/4
f 35/78/1 36/57/1 19/91/1
f 39/92/1 19/91/1 41/67/1
f 9/17/2 10/13/2 39/93/2
f 39/93/2 10/13/2 3/3/2
f 15/73/6 16/23/6 14/94/6
f 23/30/6 34/75/6 19/95/6
f 19/95/6 14/94/6 16/23/6
f 30/76/4 31/51/4 29/96/4
f 29/96/4 31/51/4 8/40/4
f 40/66/1 7/97/1 39/92/1
f 53/11/5 1/98/5 54/80/5
f 49/10/5 21/88/5 1/98/5
f 5/4/1 4/1/1 3/3/1
f 11/12/2 4/1/2 12/5/2
f 2/99/3 4/6/3 9/8/3
f 55/19/1 51/9/1 53/11/1
f 9/17/4 11/12/4 10/13/4
f 12/100/5 5/14/5 10/16/5
f 1/84/2 2/2/2 7/18/2
f 55/19/5 56/81/5 52/20/5
f 15/73/1 17/21/1 16/23/1
f 18/22/6 17/21/6 26/25/6
f 25/101/3 17/26/3 23/28/3
f 49/10/2 51/9/2 50/29/2
f 26/25/4 25/24/4 24/31/4
f 16/102/5 18/32/5 24/34/5
f 48/47/4 44/35/4 46/37/4
f 28/41/2 27/38/2 8/40/2
f 32/50/4 27/38/4 33/42/4
f 22/103/3 27/43/3 30/45/3
f 45/49/6 47/46/6 46/37/6
f 13/71/1 6/48/1 45/49/1
f 30/76/6 32/50/6 31/51/6
f 33/104/5 28/52/5 31/54/5
f 44/35/3 48/47/3 47/46/3
f 35/78/2 37/55/2 36/57/2
f 38/56/1 37/55/1 43/59/1
f 42/105/3 37/60/3 40/62/3
f 13/64/2 20/106/2 44/65/2
f 43/59/6 42/58/6 41/67/6
f 36/107/5 38/68/5 41/70/5
f 14/72/3 19/108/3 20/36/3
f 23/30/6 15/73/6 34/75/6
f 21/89/4 22/39/4 1/77/4
f 34/79/1 7/97/1 40/66/1
f 56/81/6 55/19/6 54/80/6
f 56/81/4 54/80/4 50/29/4
f 46/37/3 39/83/3 29/82/3
f 19/108/3 39/83/3 20/36/3
f 14/72/3 13/71/3 29/82/3
f 3/3/2 2/2/2 29/85/2
f 54/80/5 7/86/5 50/29/5
f 50/29/5 34/87/5 21/88/5
f 8/40/4 22/39/4 14/90/4
f 34/79/1 35/78/1 19/91/1
f 19/91/1 36/57/1 41/67/1
f 7/18/2 9/17/2 39/93/2
f 29/85/2 39/93/2 3/3/2
f 21/74/6 15/73/6 14/94/6
f 24/31/6 23/30/6 19/95/6
f 24/31/6 19/95/6 16/23/6
f 1/77/4 30/76/4 29/96/4
f 14/90/4 29/96/4 8/40/4
f 41/67/1 40/66/1 39/92/1
f 1/98/5 7/86/5 54/80/5
f 53/11/5 49/10/5 1/98/5
